{
    "asset" : {
        "generator" : "Khronos glTF Blender I/O v0.9.36",
        "version" : "2.0"
    },
    "scene" : 0,
    "scenes" : [
        {
            "name" : "Scene",
            "nodes" : [
                0
            ]
        }
    ],
    "nodes" : [
        {
            "mesh" : 0,
            "name" : "room",
            "rotation" : [
                0.7071068286895752,
                0,
                0,
                0.7071067094802856
            ],
            "scale" : [
                0.10000000149011612,
                0.10000000149011612,
                0.10000000149011612
            ],
            "translation" : [
                0.0314980074763298,
                3.588203298932058e-06,
                -1.7293848991394043
            ]
        }
    ],
    "materials" : [
        {
            "doubleSided" : true,
            "emissiveFactor" : [
                1,
                1,
                1
            ],
            "name" : "Material.008",
            "pbrMetallicRoughness" : {
                "baseColorFactor" : [
                    0.010127292014658451,
                    0.010127292014658451,
                    0.010127292014658451,
                    1
                ],
                "metallicFactor" : 0,
                "roughnessFactor" : 0.2473318874835968
            }
        }
    ],
    "meshes" : [
        {
            "name" : "autouv1.014",
            "primitives" : [
                {
                    "attributes" : {
                        "POSITION" : 0,
                        "NORMAL" : 1,
                        "TEXCOORD_0" : 2
                    },
                    "indices" : 3,
                    "material" : 0
                }
            ]
        }
    ],
    "accessors" : [
        {
            "bufferView" : 0,
            "componentType" : 5126,
            "count" : 1732,
            "max" : [
                119.97735595703125,
                109.95694732666016,
                0.118039071559906
            ],
            "min" : [
                -152.5128631591797,
                -75.75470733642578,
                -32.09137725830078
            ],
            "type" : "VEC3"
        },
        {
            "bufferView" : 1,
            "componentType" : 5126,
            "count" : 1732,
            "type" : "VEC3"
        },
        {
            "bufferView" : 2,
            "componentType" : 5126,
            "count" : 1732,
            "type" : "VEC2"
        },
        {
            "bufferView" : 3,
            "componentType" : 5123,
            "count" : 4722,
            "type" : "SCALAR"
        }
    ],
    "bufferViews" : [
        {
            "buffer" : 0,
            "byteLength" : 20784,
            "byteOffset" : 0
        },
        {
            "buffer" : 0,
            "byteLength" : 20784,
            "byteOffset" : 20784
        },
        {
            "buffer" : 0,
            "byteLength" : 13856,
            "byteOffset" : 41568
        },
        {
            "buffer" : 0,
            "byteLength" : 9444,
            "byteOffset" : 55424
        }
    ],
    "buffers" : [
        {
            "byteLength" : 64868,
            "uri" : "data:application/octet-stream;base64,"
        }
    ]
}
